<?xml version="1.0" standalone="no"?>
<!DOCTYPE svg PUBLIC "-//W3C//DTD SVG 20010904//EN"
 "http://www.w3.org/TR/2001/REC-SVG-20010904/DTD/svg10.dtd">
<svg version="1.0" xmlns="http://www.w3.org/2000/svg"
 width="406.000000pt" height="406.000000pt" viewBox="0 0 406.000000 406.000000"
 preserveAspectRatio="xMidYMid meet">
<metadata>
Created by potrace 1.11, written by Peter Selinger 2001-2013
</metadata>
<g transform="translate(0.000000,406.000000) scale(0.100000,-0.100000)"
fill="#000000" stroke="none">
<path d="M1850 4053 c-40 -4 -200 -29 -245 -38 -205 -40 -494 -160 -680 -283
-207 -137 -404 -323 -531 -502 -21 -30 -42 -56 -46 -58 -5 -2 -8 -8 -8 -12 0
-5 -13 -28 -28 -52 -16 -24 -40 -63 -53 -88 -13 -25 -28 -52 -35 -60 -6 -8
-18 -33 -26 -55 -9 -22 -27 -65 -41 -95 -28 -61 -76 -201 -83 -240 -3 -14 -9
-36 -13 -50 -14 -38 -35 -158 -50 -275 -11 -91 -6 -400 8 -490 42 -270 88
-416 201 -640 227 -451 605 -792 1090 -983 105 -41 251 -81 395 -107 86 -15
179 -20 360 -19 224 1 363 20 546 75 778 231 1354 922 1437 1724 14 138 6 462
-13 549 -3 12 -7 32 -9 46 -2 14 -13 63 -24 110 -118 496 -437 944 -868 1223
-245 158 -527 264 -819 307 -77 12 -393 20 -465 13z"/>
</g>
</svg>
