<?xml version="1.0" standalone="no"?>
<!DOCTYPE svg PUBLIC "-//W3C//DTD SVG 20010904//EN"
 "http://www.w3.org/TR/2001/REC-SVG-20010904/DTD/svg10.dtd">
<svg version="1.0" xmlns="http://www.w3.org/2000/svg"
 width="618.000000pt" height="618.000000pt" viewBox="0 0 618.000000 618.000000"
 preserveAspectRatio="xMidYMid meet">
<metadata>
Created by potrace 1.11, written by Peter Selinger 2001-2013
</metadata>
<g transform="translate(0.000000,618.000000) scale(0.100000,-0.100000)"
fill="#000000" stroke="none">
<path d="M2888 6175 c-2 -1 -43 -6 -92 -9 -49 -4 -92 -9 -95 -10 -3 -2 -33 -7
-66 -10 -85 -10 -350 -66 -420 -90 -5 -2 -14 -5 -20 -6 -189 -52 -530 -207
-738 -335 -102 -62 -325 -229 -411 -307 -123 -111 -287 -282 -366 -383 -17
-22 -38 -49 -48 -60 -31 -38 -178 -260 -224 -340 -69 -119 -152 -295 -204
-430 -25 -66 -47 -124 -48 -130 -1 -5 -10 -36 -19 -67 -10 -32 -17 -59 -17
-60 1 -2 -3 -15 -9 -31 -13 -32 -12 -30 -50 -217 -46 -227 -56 -335 -56 -595
0 -176 8 -319 21 -405 39 -260 67 -378 141 -600 276 -826 927 -1520 1736
-1854 87 -36 279 -105 311 -111 10 -3 42 -11 70 -19 41 -12 191 -46 266 -61 8
-1 56 -8 105 -15 50 -6 101 -14 115 -17 49 -9 517 -11 610 -2 461 45 935 205
1333 453 106 66 330 231 406 299 423 382 720 830 896 1352 35 106 97 348 110
430 36 240 40 293 40 545 0 200 -9 382 -20 400 -2 3 -6 28 -9 55 -27 205 -100
475 -186 691 -338 845 -1046 1511 -1902 1789 -122 40 -198 61 -268 75 -25 5
-56 12 -70 15 -55 13 -179 33 -240 40 -36 4 -78 9 -95 12 -33 5 -482 13 -487
8z"/>
</g>
</svg>
